<?xml version="1.0" encoding="UTF-8" standalone="no"?>
<svg
   viewBox="0 0 2100 500"
   version="1.1"
   id="svg27"
   sodipodi:docname="hr-dying.svg"
   inkscape:version="1.2.2 (732a01da63, 2022-12-09, custom)"
   xmlns:inkscape="http://www.inkscape.org/namespaces/inkscape"
   xmlns:sodipodi="http://sodipodi.sourceforge.net/DTD/sodipodi-0.dtd"
   xmlns="http://www.w3.org/2000/svg"
   xmlns:svg="http://www.w3.org/2000/svg">
  <sodipodi:namedview
     id="namedview29"
     pagecolor="#ffffff"
     bordercolor="#000000"
     borderopacity="0.25"
     inkscape:showpageshadow="2"
     inkscape:pageopacity="0.0"
     inkscape:pagecheckerboard="0"
     inkscape:deskcolor="#d1d1d1"
     showgrid="false"
     inkscape:zoom="1.247619"
     inkscape:cx="1498.855"
     inkscape:cy="258.49237"
     inkscape:window-width="1848"
     inkscape:window-height="1016"
     inkscape:window-x="72"
     inkscape:window-y="27"
     inkscape:window-maximized="1"
     inkscape:current-layer="svg27" />
  <defs
     id="defs20">
    <style
       id="style18">
      .cls-1{fill:#231f20}
    </style>
  </defs>
  <g
     id="ekg"
     data-name="Layer 1">
    <path
       d="m 0.6,270.80163 c 14.6,-14.67471 18.9,1.80921 29.8,3.21637 8.2,1.10563 14,-8.04093 22.3,-8.84503 14.6,-1.50767 15.1,8.74452 24.7,16.18238 13.5,-11.05628 23.4,-203.335119 23.4,-203.335119 0,0 11.5,172.779569 13.3,239.820859 1.6,-14.47368 1.4,-37.08881 10.1,-49.9543 10.5,-15.37829 23.2,-17.89108 29.6,-37.69188 4.6,-13.97112 16,-50.15533 32.5,-25.32894 10,15.07675 4.8,54.07528 24.4,62.41775 4,1.7087 13.6,-1.7087 19.1,-1.80921 5.5,-0.10051 7.5,3.31688 12.1,2.11074 4.6,-1.20614 7.4,-6.9353 11.7,-8.34247 13.2,-4.322 14.3,2.91484 20.9,13.16703 8.9,13.56908 7.2,11.96089 19.2,2.81433 5.9,-4.52302 15.3,-12.16191 23.5,-10.55373 10,1.90973 10.4,19.29825 16.9,20.30336 4.5,0.60307 7.6,-7.63888 13.1,-8.644 14.9,-2.71382 18,13.66959 24,23.2182 8.9,-11.35782 9.2,-33.36988 10.8,-46.73793 3.4,-27.23867 12.8,-99.36458 12.8,-99.36458 0,0 11.5,89.41392 13.5,148.6153 1.7,-13.16703 2.3,-43.62207 11.2,-54.57784 6.6,-8.24196 19.1,-10.55373 26.5,-17.79057 10.9,-10.75475 9.5,-27.23866 17.4,-40.10416 26.5,-43.62207 37.6,60.70905 41,76.79092 1.2,5.82968 1.7,16.88596 7.6,20.10234 3,1.7087 11.8,-6.8348 21.4,-1.00512 9.6,5.82968 23.1,-0.70358 34.7,0.40205 13.5,1.30665 16.6,-1.60819 26.9,-10.65424 5.5,-4.82456 9.6,-12.46345 18.4,-11.45833 12.5,1.30665 11.4,17.48903 21.1,21.71052 13.7,5.93019 13.9,-9.95065 24.9,-12.16191 11,-2.21126 15.3,12.46345 22.2,19.49926 11.4,-14.87572 9.1,-48.64765 10.4,-66.43821 2.8,-38.39546 12.42629,-126.34567 12.42629,-126.34567 0,0 10.27371,138.60809 12.37371,217.61027 1.6,-13.87061 1,-39.09904 10.8,-50.7584 4.3,-5.12609 12.7,-3.81944 16.1,-7.33735 3.4,-3.51791 2.8,-7.43787 4.4,-11.1568 6.8,-14.97624 18.3,-37.8929 34,-17.89108 9.2,11.75987 4.2,37.79239 18.8,44.82821 8.2,3.91996 22.3,-2.01023 31.6,-1.80921 4.8,0.10051 7.3,3.11586 12.1,1.40717 4.8,-1.7087 6.7,-9.74964 10.8,-12.56396 12.6,-8.5435 14.2,-0.90461 23,9.24707 8.8,10.15168 10.7,9.04605 22.1,0.70358 6.4,-4.62354 10.1,-10.3527 19.1,-10.45321 4.9,0 10.2,5.32712 14.5,4.82456 9.6,-1.10563 6.1,-5.02559 12.9,-9.14656 28.3,-17.38852 27.9,17.99159 37.1,38.59648 14.7,1.20614 21.6077,-138.88971 21.6077,-138.88971 0,0 11.587,122.49308 13.287,186.72004 1.7,-14.87573 0.7053,-31.04488 9.6053,-44.21191 2.9,-4.42251 8.7,-7.13633 12.6,-10.55373 12.4,-10.85526 14,-19.8008 19.3,-35.17908 5.3,-15.37829 18.8,-38.59649 34.5,-17.79057 6.4,8.44298 4,11.25731 11.9,17.1875 11.7,8.84502 11.2,3.31688 24.1,3.51791 4.7,0.10051 8.6,3.61842 13.4,3.41739 4.8,-0.20102 10.4,-4.52302 16.1,-4.02046 12.7,1.10562 12.6,9.85014 19.6,18.49414 10.7,13.26755 3.8,5.93019 15.7,2.11075 13.8,-4.42251 7.7,3.51791 19.6,5.32712 11.9,1.80921 3.7,-6.0307 12.3,-11.35782 12.5,-7.63889 14.2,7.94042 22.8,11.05628 19.5,7.03582 16.7,-31.8622 39.5,-4.82456 8.3,-19.8008 7,-46.33588 8.3,-67.1418 2.3,-38.59648 11.3935,-72.99398 11.3935,-72.99398 0,0 6.9065,134.30611 8.6065,198.63358 1.6,-14.57419 2.6,-54.97989 11.2,-67.74487 10.5,-15.37829 23.4,-18.19262 29.7,-37.69188 4.6,-14.17215 16,-50.15533 32.4,-25.32894 11.5,17.28801 4.6,48.2456 23.2,61.71417 7.3,-6.63377 7,-19.39876 20.1,-14.27266 5,2.01023 5.4,11.55884 9.5,13.26754 7,2.81433 0.1,0.20102 8.2,-1.80921 8.1,-2.01023 8.6,-10.3527 19.1,-4.52303 3.3,1.7087 6.2,10.15168 8.2,13.16703 8.1,11.86038 7.4,12.0614 18.5,3.4174 7.9,-6.23172 19.1,-14.97624 29.7,-9.24707 10.6,5.72916 3.8,20.80591 15.6,13.06651 8.4,-5.42763 3.6,-23.21819 16.7,-26.53508 17.3,-4.22149 19.3,21.40899 30.6,27.33918 13.2,-11.65936 15.5,-44.42616 18.3,-60.30701 2.1,-12.46345 16.9,-79.9825 16.9,-79.9825 0,0 13.8906,152.91109 16.9906,214.22321 2.3,-18.79568 13.0094,-156.35328 50.7094,-131.32587 11.6,7.63889 8.3,27.03764 17.3,37.39034 9,10.35271 12.3,5.32712 25.3,5.02559 5.2,-0.20103 8.5,2.41228 13.7,1.20614 5.2,-1.20614 10.2,-10.55373 16.8,-9.95066 12.2,1.00512 14.1,21.71052 23.1,27.74122 3.6,-2.6133 6.5,-6.33223 10.3,-7.94042 V -1.8865524 H 0 V 273.1134 c 0.8,-0.60307 -0.3,-1.40717 0.6,-2.31177 z"
       class="cls-1"
       id="path22"
       style="stroke-width:1.00256"
       sodipodi:nodetypes="ccccccccccsscccccccccccccccsccccscccccsccccscscccccccccscccscccsccccccccccccscccscccccccscsccccccc" />
    <path
       d="m 1789,294.2 c -6.1,-0.4 -10.9,-9.7 -13.8,-13.9 -1.6,-2.2 -6.7,-13.5 -8.3,-13.8 -1.6,-0.3 -5.3,4.7 -7.4,5 -7.2,0.9 -10.5,5.3 -19.3,5.3 -4.6,0.1 -10.5,-0.1 -14.7,-0.3 -16.4,-0.4 -22.3,-8.3 -28.8,-24.6 -2.2,-5.6 -3.4,-18.8 -9,-21.1 -11.6,-4.8 -15.6,17.3 -18,25 -6.2,20.1 -30.402,151.14944 -30.402,151.14944 0,0 -15.0369,-168.56057 -16.8369,-204.56057 C 1620.6611,216.18887 1614.7,290 1591,290 c -14.1,0 -18.1,-33.5 -31.1,-25.3 -10.4,6.5 -4.5,36.5 -25,27.2 -14.1,-6.5 -5.9,-24.5 -25.5,-12.9 -6.9,4 -12.8,16 -21.8,15.2 -6.4,-0.6 -10.5,-9.2 -13.7,-13.9 l -8.4,-13.8 c -2.592,1.42226 -5.0372,3.09705 -7.3,5 -8.1,0.9 -6.7,8.8 -16.1,5.3 -6.5,-2.3 -7.1,-12.7 -12.4,-16.5 -4.6,4.7 -5.8,15 -13.6,15.9 -10.1,1.2 -16.5,-14.5 -19.6,-21.7 -5.7,-13 -3.8,-41 -15.5,-48.9 -7.8,2.8 -10.4,19.3 -12.6,26 -5.3,16.3 -10.5,23.5 -23.2,35.3 -12.7,11.8 -13,23 -15.4,41 -2.4,18 -11.3,71.43678 -12.5,71.73678 -3.6,1.2 -6.7,-57.33678 -7.7,-92.83678 -0.7,-25.9 -2.3,-50.7781 -3,-76.6781 -1,17 3.7,56.9781 -8.3,71.1781 -12,14.2 -10.8,-1.1 -23.4,-5.3 -7.8,8.6 -7,21.4 -23.1,17.1 -8.5,-2.3 -10.6,-12.3 -18.1,-14.9 -5.6,5.2 -4,14.2 -13.6,15.7 -8,1.1 -13.4,-9.5 -19.1,-8.9 -5.7,0.6 -8.1,10.7 -17.2,7.9 -11.2,-3.4 -10.4,-21.2 -19.2,-25.6 -6.4,-3.3 -16.6,2.2 -24.6,2.4 -3.6,0.1 -12.1,-1.7 -15.6,-2 -3.5,-0.3 -4.7,2.9 -7.2,2.5 -4.7,-0.7 -19.2,-8 -22.6,-11.7 -3.4,-3.7 -3.6,-16.9 -10.5,-19.8 -12.8,-5.4 -16.5,26.2 -19.4,33.6 -6.6,16.8 -22.5,22 -30.3,36.3 -8.5,15.9 -16.2164,104.57392 -16.2164,104.57392 0,0 -8.6836,-50.17392 -9.4836,-75.67392 -1,-39.13333 -0.8036,-64.53112 -1.9369,-103.46446 C 1005.2631,254.13554 1006.3,283 992.4,300 970.7,326.4 973,264.2 960.9,260.6 c -6.7,-2 -15.7,15.3 -25.7,15.8 -14.3,0.5 -14.3,-6.9 -27.8,2.2 -4.5,3.1 -9.9,10.4 -15.3,11.3 -13.6,2.5 -21.4,-13 -28.5,-22.4 -5.1,4.7 -8.7,13.5 -15,16.6 -8.7,4.3 -13.2,-1.9 -21.7,-1.8 -20,0.1 -32.4,10.2 -43,-14.3 -3,-7.1 -4.1,-36.4 -13.4,-36.3 -7,0.1 -11.2,13.8 -13.2,18.4 -5.1,12.1 -4.8,12.1 -13.6,19.1 -8.8,7 -8,2.4 -12,12 -5.4,13.4 -14.83545,104.57725 -14.83545,104.57725 0,0 -9.16455,-71.97725 -9.86455,-96.87725 -1,-37.4 -2,-74.9 -3.1,-112.3 -1.3,28 -2.5,56.2 -5.9,84 -1.1,8.7 -1.6,36.5 -12.4,41 -10.8,4.5 -12.2,-9.2 -18.5,-14 -11,-8.2 -1.4,-3 -13.3,3.5 -9.5,5.3 -17.4,7.8 -27,0 -9.6,-7.8 -7,-19.3 -19.6,-15.5 -6.2,1.9 -12.3,14.3 -18.6,17.6 -11.6,6.1 -17.5,-0.8 -27.3,-0.9 -8.2,0 -15.5,4.4 -23.9,4.5 -3.9,0.1 -7.9,-3.4 -11.9,-3.5 -4,-0.1 -5.7,3.8 -9,3.6 -20.9,-1.4 -21.3,-28.8 -24,-45.2 -2.3,-14.1 -2.6,-55.5 -15.5,-64.2 -6.6,2.4 -9.8,17.4 -11.6,22.7 -4.5,13.8 -6.5,22.1 -18.9,31 -14.7,10.7 -20.6,9.8 -24.9,26.5 -7.8,30 -14.79973,81.37692 -14.79973,81.37692 0,0 -7.70027,-62.97692 -8.30027,-80.87692 l -3.08333,-54.87451 C 394.51667,226.12549 394.9,311.3 370.5,309.7 c -9.9,-0.7 -8.7,-15.6 -14.8,-20.1 -10.9,-7.9 -4.2,-0.8 -11.6,1.2 -13.9,3.7 -11,3.6 -21.1,-5.7 -8.1,-7.3 -0.3,-13.6 -15.9,-7.8 -7.6,2.9 -12.2,14.3 -19.9,15.9 -11.3,2.5 -14.7,-8.6 -20.7,-16.3 -11,-13.8 -4.8,-6.9 -19.3,-1.3 -9.4,3.6 -15.5,-0.4 -24.9,-0.6 -9.4,-0.2 -10.3,5.2 -19.9,-2.1 -6.6,-5 -10.6,-15.8 -13.2,-23.3 -4.1,-11.6 -2.9,-36.9 -13.6,-44 -8,2.9 -11.3,22.7 -13.4,29.1 -2.8,8.1 -4.3,14.7 -10,21.5 -5.7,6.8 -15.7,10 -20.2,16.9 -7.3,11.3 -9.7,29.7 -11.1,42.3 -1.4,12.6 -8.68859,66.56471 -8.68859,66.56471 0,0 -9.51465,-116.16997 -11.31465,-181.76997 C 99.996756,213.79474 100.3,301.9 71.2,288.4 61,283.7 63.9,273.2 50.1,275.4 c -7,1.1 -10.4,9.5 -19,8.5 -6.3,-0.7 -9.2,-8.7 -14.3,-9.3 C 9.6,273.7 6.7,281.1 0,282.9 V 500.5 H 1800.4 V 289.6 c -3.0296,2.99972 -7.137,4.65708 -11.4,4.6 z"
       class="cls-1"
       id="path24"
       sodipodi:nodetypes="ccsccccccccscccccccccccccsscccsccccscccscscccccccccccccccccscccccsccsccccscccccccccccccccccsccccscsccccccccccc" />
  </g>
</svg>
